<?xml version="1.0" encoding="UTF-8" standalone="no"?>
<!-- Created with Inkscape (http://www.inkscape.org/) -->

<svg
   xmlns:dc="http://purl.org/dc/elements/1.1/"
   xmlns:cc="http://creativecommons.org/ns#"
   xmlns:rdf="http://www.w3.org/1999/02/22-rdf-syntax-ns#"
   xmlns:svg="http://www.w3.org/2000/svg"
   xmlns="http://www.w3.org/2000/svg"
   xmlns:sodipodi="http://sodipodi.sourceforge.net/DTD/sodipodi-0.dtd"
   xmlns:inkscape="http://www.inkscape.org/namespaces/inkscape"
   id="svg3376"
   version="1.1"
   inkscape:version="0.91 r13725"
   width="176.25"
   height="572.8125"
   viewBox="0 0 176.25 572.8125"
   sodipodi:docname="ComicCharacter31.svg">
  <metadata
     id="metadata3382">
    <rdf:RDF>
      <cc:Work
         rdf:about="">
        <dc:format>image/svg+xml</dc:format>
        <dc:type
           rdf:resource="http://purl.org/dc/dcmitype/StillImage" />
        <dc:title></dc:title>
      </cc:Work>
    </rdf:RDF>
  </metadata>
  <defs
     id="defs3380" />
  <sodipodi:namedview
     pagecolor="#ffffff"
     bordercolor="#666666"
     borderopacity="1"
     objecttolerance="10"
     gridtolerance="10"
     guidetolerance="10"
     inkscape:pageopacity="0"
     inkscape:pageshadow="2"
     inkscape:window-width="1600"
     inkscape:window-height="837"
     id="namedview3378"
     showgrid="false"
     inkscape:zoom="1.1696672"
     inkscape:cx="88.125"
     inkscape:cy="286.40625"
     inkscape:window-x="-8"
     inkscape:window-y="-8"
     inkscape:window-maximized="1"
     inkscape:current-layer="svg3376" />
  <path
     style="fill:#000000"
     d="m 111.82188,570.36315 c -1.75557,-1.97197 -1.99446,-3.03562 -1.51437,-6.74285 0.31351,-2.42085 1.10054,-5.03436 1.74896,-5.8078 1.6105,-1.92099 2.58773,-10.43662 1.3986,-12.1875 -0.77056,-1.13457 -1.10822,-1.16913 -1.74783,-0.17887 -0.43601,0.67505 -2.73183,1.38539 -5.10181,1.5785 -4.73148,0.38556 -7.509618,1.55736 -10.797571,4.55434 -2.217805,2.02154 -2.953648,2.13417 -18.932859,2.89797 -4.382813,0.20949 -11.473629,0.62696 -15.757371,0.92771 l -7.78862,0.54683 0.28862,-3.9206 c 0.279578,-3.79775 0.508931,-4.0505 7.319871,-8.06624 3.867187,-2.2801 8.917134,-6.00441 11.222104,-8.27625 2.304968,-2.27183 4.941687,-4.36891 5.859375,-4.66017 0.917687,-0.29126 1.670098,-1.23942 1.672025,-2.10702 0.002,-0.86759 0.839477,-2.94854 1.861221,-4.62432 1.449911,-2.37803 1.566347,-3.04688 0.530413,-3.04688 -1.096905,0 -1.23329,-1.78208 -0.785703,-10.26641 0.452884,-8.58476 0.288645,-10.65248 -1.002668,-12.62327 -1.752002,-2.67389 -2.030304,-8.20042 -0.552049,-10.96256 0.725366,-1.35536 0.624374,-3.16677 -0.375514,-6.73525 C 78.100229,476.14262 76.95096,469.72708 76.393007,464.0625 75.342697,453.39931 73.565708,444.12551 72.494001,443.71426 71.8098,443.45171 71.25,442.01068 71.25,440.51197 c 0,-1.4987 -0.386341,-3.45747 -0.858535,-4.35282 -1.52456,-2.89078 -4.786636,-13.93791 -5.220525,-17.67948 -1.378378,-11.88623 -2.727479,-15.39564 -8.225538,-21.3971 -3.699092,-4.03778 -4.727434,-8.29221 -6.357322,-26.30132 -0.606655,-6.70313 -1.489362,-14.08594 -1.961568,-16.40625 -1.87823,-9.22916 -8.95905,-32.48227 -10.77086,-35.37102 -1.532102,-2.4428 -4.224515,-14.33201 -4.265102,-18.83394 -0.02135,-2.3674 -0.36265,-2.98279 -1.427645,-2.57412 -5.477224,2.10181 -8.802424,1.45641 -15.52228,-3.01278 -3.898154,-2.59255 -4.107439,-3.27025 -2.161744,-7.0001 0.787364,-1.50936 1.134674,-3.85286 0.840059,-5.66835 -0.276249,-1.70232 0.141429,-5.81782 0.928173,-9.14554 0.786744,-3.32772 1.433349,-7.44818 1.436899,-9.15659 0.0036,-1.70841 1.280765,-7.40372 2.838253,-12.65625 1.557489,-5.25253 3.102571,-11.26262 3.433514,-13.35575 0.593637,-3.7546 0.546995,-3.83241 -3.473906,-5.79607 -2.241593,-1.0947 -6.084344,-2.68841 -8.539448,-3.54156 -2.4551031,-0.85314 -4.8957273,-2.3582 -5.4236092,-3.34456 -0.527882,-0.98635 -1.5123693,-1.79337 -2.1877497,-1.79337 -2.0929643,0 -4.6282915,-3.51082 -3.86760193,-5.3557 0.37997645,-0.92156 0.77694423,-5.05055 0.88215063,-9.17555 0.1988352,-7.79605 0.9928054,-10.05032 6.3832754,-18.12359 1.7134485,-2.56622 3.0441208,-3.67209 3.9843748,-3.31129 1.914082,0.7345 1.797961,1.38535 -0.976644,5.47395 -3.2562661,4.79838 -6.0480767,12.43699 -6.0486483,16.54957 -6.35e-4,4.5687 2.3314109,9.88044 4.9198554,11.20602 1.1610079,0.59457 2.7437349,1.86422 3.5171719,2.82143 1.716653,2.12456 6.952096,3.16903 14.831544,2.9589 4.274217,-0.11398 5.821156,0.15833 5.551568,0.97725 -0.20555,0.6244 -1.39537,1.27645 -2.644045,1.44902 -4.768239,0.65897 -3.973051,2.02999 1.177391,2.02999 6.29281,0 8.215135,-1.53817 6.533875,-5.22813 C 37.9839,224.09882 37.5,221.25453 37.5,219.07622 c 0,-5.26555 3.075269,-16.13661 5.27331,-18.64111 1.962833,-2.23651 2.433812,-2.28579 -4.4509,0.46572 -2.165487,0.86545 -2.959948,0.57207 -6.659055,-2.45907 -4.777344,-3.91467 -5.791828,-4.23612 -4.944605,-1.56676 0.72122,2.27236 -1.518806,2.59237 -3.28125,0.46875 -1.319611,-1.59004 -5.215541,-1.88972 -6.09375,-0.46875 C 16.358014,198.46996 15,197.9097 15,195.90808 c 0,-1.04744 0.632813,-2.14726 1.40625,-2.44405 0.773437,-0.29681 1.40625,-1.18627 1.40625,-1.97661 0,-3.89812 6.95017,-5.17315 11.864531,-2.17657 3.652211,2.22696 4.43562,1.60982 2.560201,-2.01683 -1.81331,-3.50656 -0.793556,-4.72658 1.456925,-1.74305 0.977975,1.29653 2.267581,2.02041 3.058607,1.71687 1.796926,-0.68954 5.747478,-11.59566 5.098827,-14.07611 -0.277929,-1.0628 -0.06603,-2.75321 0.470892,-3.75645 0.685516,-1.28089 0.671184,-2.12911 -0.04813,-2.84843 -1.506914,-1.50691 -1.219344,-3.62801 0.850648,-6.27435 2.807095,-3.58867 2.029718,-9.42046 -1.536591,-11.52731 -1.034497,-0.61115 -0.976922,-1.18247 0.318389,-3.15937 l 1.581257,-2.4133 1.693473,2.09136 c 0.931409,1.15023 1.693472,3.09929 1.693472,4.33123 0,1.23194 0.365813,2.23989 0.812919,2.23989 1.128433,0 5.749581,-7.14212 5.749581,-8.88615 0,-0.78449 0.435115,-1.42635 0.966923,-1.42635 0.531808,0 1.217996,-0.65428 1.524863,-1.45397 0.306866,-0.79968 2.633031,-4.90659 5.169256,-9.12648 2.536224,-4.21988 4.171135,-7.81924 3.633135,-7.99858 -1.097762,-0.36591 -6.645009,2.80521 -10.661223,6.09457 -1.456562,1.19295 -5.730666,3.65156 -9.498008,5.46358 -8.637199,4.15432 -11.759946,6.60376 -11.759946,9.22432 0,1.13705 -0.802296,2.7543 -1.782879,3.59391 -1.750438,1.49877 -3.961922,7.94467 -5.227015,15.2354 -0.75143,4.33049 -6.632865,17.65994 -9.554321,21.65353 -3.121834,4.26751 -3.848038,1.86042 -1.08648,-3.60126 5.452162,-10.78302 7.144972,-15.46245 7.76609,-21.46775 0.655787,-6.3405 6.117542,-19.61328 9.035411,-21.95724 0.724869,-0.5823 4.469354,-2.43126 8.321077,-4.1088 7.018739,-3.05688 10.503683,-5.1993 14.838454,-9.12216 1.2776,-1.15619 4.5607,-2.80756 7.295778,-3.66972 4.718308,-1.48731 4.945564,-1.70408 4.439473,-4.23453 -0.685211,-3.42606 3.505489,-10.14982 6.32605,-10.14982 2.047309,0 5.506398,6.20778 5.545273,9.95169 0.01132,1.09063 0.917193,3.1228 2.013044,4.51594 1.095849,1.39315 2.523392,4.2977 3.172317,6.45456 1.15341,3.83363 1.267181,3.9175 5.074444,3.74053 3.64423,-0.1694 6.499509,-1.76583 11.378854,-6.3621 0.80401,-0.75737 4.14813,-2.75905 7.43138,-4.44819 3.72791,-1.91791 6.61335,-4.1597 7.68401,-5.96995 0.94297,-1.59432 2.76682,-3.37825 4.05301,-3.96427 1.61589,-0.73625 2.33853,-1.81502 2.33853,-3.49099 0,-1.33402 0.39244,-3.15877 0.87208,-4.05499 0.47965,-0.89623 0.52706,-2.18778 0.10536,-2.870108 -0.59622,-0.964716 -2.30171,-0.412294 -7.66897,2.484048 -3.79622,2.04856 -9.3648,4.49186 -12.37462,5.42955 -6.214766,1.93617 -6.722759,2.7164 -7.719472,11.85622 -0.696581,6.38773 -1.732982,9.22806 -3.367183,9.22806 -0.691334,0 -0.793809,-1.29528 -0.315222,-3.98437 0.390012,-2.19141 0.971275,-6.87013 1.291695,-10.39715 l 0.582582,-6.41278 7.5,-2.59533 c 9.53154,-3.29834 19.14287,-8.134267 19.85498,-9.99002 0.30273,-0.788888 0.0227,-2.420339 -0.62223,-3.625451 -2.04669,-3.824266 1.23129,-6.0322 3.51843,-2.369899 1.46538,2.346452 3.1759,2.348084 10.74492,0.01026 4.50167,-1.390427 6.30493,-2.452044 7.08935,-4.173656 0.57861,-1.269901 2.33592,-2.972849 3.90516,-3.784329 3.46567,-1.79217 3.57151,-2.788352 0.50939,-4.794728 -2.52512,-1.654522 -3.06048,-3.687082 -1.17188,-4.449152 0.64454,-0.260074 -0.16471,-0.506168 -1.79832,-0.546875 -1.63361,-0.04071 -3.53604,-0.291148 -4.22763,-0.556534 -0.70355,-0.269979 -1.92006,0.609563 -2.76178,1.996774 -1.17467,1.935982 -1.2896,3.048203 -0.52442,5.0754 0.77701,2.058551 0.6491,3.100998 -0.61776,5.034476 -1.74203,2.658665 -4.36696,3.279062 -4.36696,1.032118 0,-0.773438 0.31944,-1.40625 0.70988,-1.40625 0.39044,0 0.55981,-1.886866 0.37639,-4.193034 -0.37312,-4.691478 2.12065,-9.793634 6.04298,-12.363638 2.86097,-1.874576 1.93062,-3.416502 -1.59428,-2.642305 -2.08128,0.457126 -2.87133,0.214415 -3.34833,-1.028636 -0.93987,-2.449257 3.1235,-5.382234 6.51646,-4.703642 2.71158,0.542317 7.09946,-1.131035 10.28127,-3.920848 2.48042,-2.174827 2.14825,0.534667 -0.39779,3.244805 -1.6553,1.761994 -1.75693,2.169798 -0.54068,2.169798 4.43887,0 11.14433,-10.320368 9.13945,-14.066519 -0.76495,-1.429314 -0.57708,-1.996753 0.92773,-2.802102 2.32221,-1.242807 2.33648,-1.90511 0.14775,-6.854689 -0.95654,-2.163117 -2.69594,-6.46419 -3.86534,-9.55794 -1.16939,-3.09375 -2.4871,-6.574219 -2.92823,-7.734375 -0.46614,-1.225943 -1.59462,-2.109375 -2.69446,-2.109375 -1.04082,0 -3.52435,-1.474373 -5.51897,-3.276385 -1.9946,-1.802012 -5.26535,-3.9292037 -7.26832,-4.7270923 -7.94693,-3.1656839 -12.47689,-5.6507968 -12.51159,-6.8637802 -0.0265,-0.92644457 0.66618,-1.09482601 2.54171,-0.61785624 1.41796,0.36060822 4.59551,0.97828164 7.06121,1.37260764 2.46569,0.394326 5.41881,1.5436944 6.5625,2.5541519 2.70125,2.3866042 7.04115,5.1671617 10.28189,6.5875852 1.41761,0.621342 3.06737,2.204888 3.66611,3.518991 0.59874,1.314103 1.41635,2.389278 1.81689,2.389278 0.40056,0 1.99883,2.636719 3.55171,5.859375 6.91567,14.351802 5.43616,38.50537 -3.05784,49.920836 -1.15142,1.547446 -3.23375,5.181969 -4.6274,8.076716 -2.40702,4.999647 -2.89736,5.427456 -9.79293,8.544145 -3.99246,1.804533 -8.31371,3.531063 -9.60277,3.836734 -4.21579,0.999669 -5.78976,2.868003 -6.31085,7.491074 -0.40461,3.58979 -0.22396,4.39612 0.98497,4.39612 1.84759,0 6.25616,5.65239 6.28423,8.05724 0.0114,0.98258 0.84583,2.8412 1.85415,4.13026 1.00832,1.28906 1.84268,2.73292 1.85415,3.20857 0.0374,1.55224 9.7971,10.45328 15.37166,14.01929 2.99489,1.91581 7.83255,5.78184 10.75035,8.59119 2.9178,2.80935 5.61551,5.11027 5.99491,5.11318 0.37941,0.003 1.81256,1.70184 3.18479,3.77543 2.36664,3.57621 2.50933,4.4604 2.77418,17.18884 0.15355,7.38028 0.37467,13.8048 0.49136,14.27672 0.1167,0.47192 -0.12682,2.91466 -0.54113,5.42833 -0.45594,2.76614 -0.29875,8.31742 0.39818,14.0625 0.98223,8.09688 0.94539,10.11234 -0.25058,13.71095 -0.77115,2.32031 -1.6917,6.32812 -2.04569,8.90625 -0.69226,5.04192 -4.73821,12.99259 -8.03027,15.78029 -2.28373,1.93384 -7.10648,3.77938 -12.45214,4.76511 -2.89587,0.53398 -3.4649,0.97029 -2.92943,2.24615 0.36551,0.8709 0.98264,3.06001 1.37141,4.8647 0.63292,2.93812 2.20922,7.20209 4.67876,12.65625 1.62289,3.58428 3.00808,15.08141 3.47069,28.80686 l 0.46535,13.80687 -2.3219,1.05793 c -2.00385,0.91301 -2.47253,2.03956 -3.42155,8.22438 -0.60481,3.94155 -1.67892,8.43208 -2.38691,9.97896 -3.48374,7.61153 -4.09659,10.06949 -4.70546,18.87207 -0.45645,6.59906 -0.32336,10.12031 0.43618,11.53953 0.72036,1.34598 1.21024,10.09572 1.43663,25.65918 0.4724,32.47541 1.27207,55.90702 2.43475,71.34224 0.54017,7.17091 0.73144,14.9756 0.42507,17.34375 -0.60874,4.70534 -1.06199,12.2146 -1.91991,31.80764 -0.30851,7.04583 -1.04846,15.55278 -1.64433,18.90434 -0.59588,3.35156 -0.98852,6.43714 -0.87253,6.85684 0.11599,0.4197 -0.21336,2.33863 -0.73188,4.26428 -1.86152,6.91314 -1.48433,11.90584 1.1346,15.01825 3.04199,3.61521 4.11249,9.43557 2.43318,13.22938 -0.68624,1.55031 -1.72587,2.81875 -2.31031,2.81875 -0.58442,0 -1.58778,0.63281 -2.22968,1.40625 -0.65699,0.79162 -2.70066,1.40625 -4.67587,1.40625 -1.9831,0 -4.48094,0.75408 -5.74457,1.73425 -1.68757,1.309 -4.53466,1.87046 -11.61081,2.28972 -9.14139,0.54163 -9.42694,0.49712 -11.45937,-1.78582 z m 14.74062,-4.4211 5.15625,-1.9439 -3.6334,-0.62064 c -8.38183,-1.43174 -16.37915,1.41492 -12.31789,4.38458 1.89823,1.38803 2.59886,1.2699 10.79504,-1.82004 z m 14.81464,-5.75669 c 0.97852,-0.97853 -0.40896,-1.21084 -9.65839,-1.61718 -9.54609,-0.41938 -16.28203,0.2835 -13.59375,1.41848 3.14373,1.32726 21.96276,1.48808 23.25214,0.1987 z m 6.74786,-2.31753 c 0,-0.48519 -0.42188,-1.14291 -0.9375,-1.46158 -0.51563,-0.31867 -0.9375,0.0783 -0.9375,0.88217 0,0.80387 0.42187,1.46158 0.9375,1.46158 0.51562,0 0.9375,-0.39698 0.9375,-0.88217 z M 141.5625,555 c 0,-0.57265 -3.92208,-0.90113 -10.07813,-0.84405 -6.49552,0.0603 -9.24495,0.36027 -7.73437,0.84405 3.47295,1.11223 17.8125,1.11223 17.8125,0 z m -78.368657,-3.60857 c 0.2706,-0.43784 3.943315,-1.06222 8.161587,-1.38751 8.292546,-0.63948 9.277484,-0.99601 7.543046,-2.73045 -0.885366,-0.88536 -1.539656,-0.87867 -2.995703,0.0307 -2.227506,1.39109 -6.527773,0.52679 -6.527773,-1.31201 0,-1.77744 -4.598839,-1.68902 -5.285976,0.10163 -0.296795,0.77344 -1.127305,1.40625 -1.845576,1.40625 -0.718271,0 -1.305948,0.63281 -1.305948,1.40625 0,0.77344 -0.818852,1.40625 -1.819672,1.40625 -1.000819,0 -2.080404,0.42187 -2.399078,0.9375 -0.344116,0.55679 0.753072,0.9375 2.701843,0.9375 1.804688,0 3.50265,-0.35823 3.77325,-0.79607 z m 69.445417,-1.05144 c 0.80916,-1.30925 -3.04556,-2.05861 -8.86567,-1.7235 -2.96949,0.17098 -5.19077,0.77015 -5.41865,1.46163 -0.47416,1.43883 13.39973,1.69317 14.28432,0.26187 z M 87.067917,547.73437 C 84.551547,544.52576 82.5,543.768 82.5,546.04717 c 0,1.46386 2.47705,3.253 4.567917,3.29932 1.090556,0.0242 1.090556,-0.22155 0,-1.61212 z m 5.744583,0.0949 c 0,-0.22421 -0.905973,-1.33923 -2.013274,-2.47782 -1.678572,-1.72602 -1.912357,-1.78468 -1.40625,-0.35288 C 89.72684,545.94307 90,547.30092 90,548.016 c 0,0.77053 0.572846,1.08033 1.40625,0.76053 0.773437,-0.29681 1.40625,-0.72308 1.40625,-0.94728 z m 45.9375,-3.6105 c 0,-0.77344 -0.39174,-1.40625 -0.87053,-1.40625 -1.43423,0 -3.818,-2.83355 -3.80262,-4.52009 0.0232,-2.53999 1.54118,-4.2406 3.21271,-3.59918 1.18773,0.45578 1.32453,0.99648 0.59636,2.3571 -1.15382,2.15593 -0.24199,3.31916 1.48095,1.88925 1.78184,-1.4788 1.55912,-4.24338 -0.45784,-5.6833 -2.56702,-1.83259 -2.9946,-5.02579 -1.39449,-10.41395 2.12629,-7.15999 1.99382,-18.6348 -0.5858,-50.74405 -0.72325,-9.0023 -0.68732,-13.70541 0.13964,-18.28125 0.61236,-3.38842 1.15516,-8.19205 1.2062,-10.67472 0.0583,-2.83744 0.5991,-4.83954 1.45599,-5.39063 1.14245,-0.73472 1.1555,-1.01057 0.0806,-1.70354 -0.93572,-0.60326 -1.39882,-4.08916 -1.71249,-12.89062 -0.23647,-6.63507 -0.62426,-16.80986 -0.86178,-22.61064 C 136.89319,392.15192 137.06088,390 138.05879,390 c 0.68954,0 1.65676,0.40305 2.14939,0.89568 1.26973,1.26973 0.48424,-14.00555 -0.8415,-16.36443 -1.16543,-2.07365 -2.57029,-17.9751 -2.2363,-25.3125 0.11735,-2.57812 0.15555,-8.82254 0.0848,-13.87647 -0.11136,-7.96431 0.0716,-9.15043 1.373,-8.89981 0.82582,0.15904 1.89389,1.65735 2.37347,3.3296 1.21905,4.25056 2.13807,3.79104 2.82525,-1.41269 0.32343,-2.44922 0.84059,-5.99622 1.14925,-7.8822 0.46414,-2.83617 0.26151,-3.4965 -1.17191,-3.81903 -0.9532,-0.21447 -2.40166,0.17075 -3.2188,0.85607 -1.15438,0.96812 -2.59418,1.03578 -6.45608,0.30339 -2.73366,-0.51844 -6.60664,-0.94261 -8.60657,-0.94261 -4.04036,0 -12.08096,-4.06237 -16.31516,-8.24294 -3.52965,-3.48496 -8.00545,-13.32385 -8.7431,-19.21948 -0.567705,-4.53739 -0.774827,-4.85725 -2.939533,-4.53958 -3.895437,0.57164 -31.049556,0.24247 -36.547547,-0.44305 -2.835937,-0.35359 -6.086917,-1.2501 -7.224397,-1.99223 -2.957625,-1.92967 -3.676026,-1.03926 -4.347902,5.3889 -0.656307,6.2792 -2.05612,9.73982 -3.563023,8.8085 -0.53831,-0.33269 -0.786583,-1.61014 -0.551717,-2.83876 0.61791,-3.23239 -0.702338,-2.74303 -2.970358,1.10098 -2.891174,4.90017 -2.754258,6.53374 2.352749,28.07141 0.733589,3.09375 1.7375,7.62525 2.230914,10.07 0.493414,2.44474 1.75248,6.21539 2.797925,8.37921 1.045445,2.16382 1.907161,5.85889 1.914924,8.21126 0.0078,2.35236 0.622059,5.96453 1.365101,8.02703 0.743041,2.0625 1.369502,5.45859 1.392134,7.54687 0.02263,2.08829 0.450856,4.20659 0.951607,4.70733 0.500751,0.50076 1.347781,3.994 1.882288,7.76276 0.534506,3.76876 1.389589,7.63288 1.900183,8.58693 0.686369,1.28249 0.532475,2.13053 -0.5904,3.2534 -1.365935,1.36594 -1.372992,1.63191 -0.07013,2.64323 2.558876,1.9863 7.247097,11.00583 8.554447,16.45766 0.697941,2.9105 1.801613,6.55744 2.452606,8.10432 0.650993,1.54687 1.502517,4.92187 1.892276,7.5 0.38976,2.57812 1.629766,7.85156 2.755572,11.71875 3.375443,11.59479 5.575599,21.79214 5.601133,25.96029 0.01324,2.16098 0.391424,4.15609 0.840413,4.43358 0.44899,0.27749 1.074171,2.51724 1.389293,4.97721 1.005841,7.85201 1.784569,10.94056 3.086841,12.24283 1.536433,1.53643 1.635383,5.43322 0.239631,9.43708 -0.861564,2.47148 -0.716589,3.55782 0.884817,6.63019 1.594224,3.05858 1.865836,5.06134 1.620621,11.94974 -0.162024,4.55143 -0.429621,8.6972 -0.59466,9.21283 -0.16504,0.51562 0.02467,2.30823 0.421583,3.98357 0.697552,2.94433 0.845645,3.02625 4.433784,2.45248 2.783543,-0.44511 4.113415,-0.20463 5.316312,0.96133 1.954472,1.89446 7.572107,5.59078 9.784237,6.4379 1.50483,0.57625 1.62918,-1.15826 1.78433,-24.88918 0.28635,-43.79554 0.12572,-51.36805 -1.38634,-65.35235 -2.12718,-19.67322 -2.93397,-24.08006 -5.74977,-31.40625 -2.94697,-7.66747 -4.925976,-15.38829 -6.127663,-23.90625 -0.472829,-3.35156 -1.124391,-7.62595 -1.447913,-9.49865 -0.334444,-1.9359 -0.182231,-3.65582 0.352809,-3.98649 0.591029,-0.36527 0.316604,-1.88844 -0.737793,-4.0951 -0.923352,-1.93244 -1.985862,-4.99007 -2.361126,-6.79476 -0.375264,-1.80469 -1.851088,-5.8125 -3.279608,-8.90625 -1.428521,-3.09375 -3.768482,-8.23796 -5.199914,-11.43158 -1.912721,-4.26742 -3.31862,-6.10318 -5.303787,-6.92546 -3.305309,-1.3691 -5.147783,-4.34345 -3.630476,-5.86076 0.771999,-0.772 1.525305,-0.74951 2.862289,0.0854 0.997996,0.62326 2.479742,0.87793 3.292768,0.56594 0.813025,-0.31198 2.306266,0.18212 3.318311,1.09801 1.943944,1.75923 2.474261,4.18714 0.914582,4.18714 -0.509025,0 0.881844,3.48047 3.090818,7.73438 6.185355,11.91137 11.518921,28.55195 10.498152,32.75395 -0.28966,1.19236 0.154068,4.48824 0.986053,7.32417 0.831984,2.83594 1.647548,6.42188 1.812358,7.96875 0.1648,1.54688 0.78601,4.06558 1.38045,5.59714 0.91772,2.36447 0.83323,2.96565 -0.55995,3.98438 -1.53088,1.1194 -1.51325,1.19973 0.26338,1.19973 2.04485,0 4.14708,4.71053 4.43333,9.93387 0.082,1.49731 0.54675,3.35332 1.03266,4.12447 0.96771,1.53578 1.9038,6.77446 3.2674,18.28541 0.48865,4.125 1.35115,10.875 1.91666,15 0.56552,4.125 1.3894,12.77344 1.83087,19.21875 0.44147,6.44532 1.28258,13.3001 1.86914,15.23286 0.58656,1.93275 1.15303,9.31556 1.25884,16.40625 0.17862,11.97126 0.35213,13.10522 2.42922,15.87519 2.85809,3.81153 2.40138,9.48331 -1.18852,14.75987 -1.37718,2.02424 -2.12052,3.92268 -1.65186,4.21875 0.46865,0.29608 1.01377,1.38208 1.21138,2.41333 0.32709,1.707 0.9668,1.84533 7.1397,1.54379 5.7339,-0.28007 6.78042,-0.0992 6.78042,1.17188 0,0.8267 -0.73828,1.53274 -1.64062,1.56898 -2.89014,0.11607 1.70179,1.66851 5.15625,1.74321 2.11261,0.0456 3.04687,-0.3653 3.04687,-1.34036 z M 84.84375,540.9375 c -0.318674,-0.51563 -1.29279,-0.93104 -2.164703,-0.92315 -1.366196,0.0124 -1.390941,0.13996 -0.179047,0.92315 1.835974,1.1865 3.077046,1.1865 2.34375,0 z m 14.53125,0.17678 c 0,-1.40296 -3.80625,-4.86428 -5.349019,-4.86428 -1.138599,0 -0.831838,0.70736 1.208391,2.78646 2.743125,2.79538 4.140628,3.49666 4.140628,2.07781 z m 10.3125,-0.52834 c 0,-1.1954 -5.4259,-2.97253 -6.32637,-2.07207 -0.41755,0.41755 4.38766,3.25763 5.62325,3.32359 0.38671,0.0206 0.70312,-0.54254 0.70312,-1.25152 z m -16.875,-0.0931 c 0,-0.87006 -5.810018,-3.4328 -6.413773,-2.82905 -0.849247,0.84923 2.644812,3.27371 4.717957,3.27371 0.932699,0 1.695816,-0.2001 1.695816,-0.44468 z M 91.875,532.5 c -1.842651,-1.19081 -4.6875,-1.19081 -4.6875,0 0,0.51562 1.371094,0.93104 3.046875,0.92315 2.312084,-0.0109 2.707741,-0.23353 1.640625,-0.92315 z m 51.92894,-7.8949 c 1.15553,-4.60394 2.32134,-20.11033 2.41802,-32.16169 0.0823,-10.25785 -0.17875,-12.82499 -1.51094,-14.85817 -1.40915,-2.15061 -1.4722,-3.12709 -0.50448,-7.81234 1.36453,-6.60642 1.49354,-28.2104 0.16846,-28.2104 -1.17072,0 -0.93638,-1.8682 -1.88156,15 -0.44784,7.99219 -1.10876,17.54369 -1.46871,21.22556 -0.66024,6.75333 -0.0916,11.58694 1.36313,11.58694 0.43429,0 0.59747,-1.00523 0.3626,-2.23386 -0.23487,-1.22862 0.0222,-2.5115 0.57127,-2.85084 1.78767,-1.10484 2.28004,4.17723 1.1181,11.99477 -2.34452,15.77388 -2.81681,19.9547 -2.84666,25.1993 -0.0313,5.49917 1.18345,7.2139 2.21077,3.12073 z m -28.27536,-4.38748 c -0.13895,-1.23688 -0.4718,-7.94418 -0.73965,-14.90512 -0.26785,-6.96094 -0.75023,-14.13281 -1.07195,-15.9375 l -0.58496,-3.28125 -0.7116,3.75 c -0.68389,3.60391 -0.17695,29.61497 0.62731,32.18734 0.65894,2.10763 2.74969,0.57933 2.48085,-1.81347 z m 24.9855,-63.8895 c -0.0948,-4.20707 -0.21485,-4.51342 -0.82658,-2.10937 -1.06005,4.16594 -1.06005,7.03125 0,7.03125 0.52004,0 0.88811,-2.19168 0.82658,-4.92188 z m 5.26717,-28.35937 c 0,-1.46093 -0.52734,-2.83203 -1.17188,-3.04688 -0.79545,-0.26515 -1.17187,0.71355 -1.17187,3.04688 0,2.33333 0.37642,3.31203 1.17187,3.04687 0.64454,-0.21484 1.17188,-1.58594 1.17188,-3.04687 z m -0.4089,-7.73438 c 0.0329,-0.38671 0.19521,-2.07938 0.36065,-3.76148 0.16544,-1.68209 -0.0724,-3.28902 -0.52859,-3.57095 -0.45618,-0.28193 -0.82941,0.74342 -0.82941,2.27856 0,1.53513 -0.25607,3.45847 -0.56905,4.27407 -0.31298,0.81562 -0.10204,1.48293 0.46875,1.48293 0.57079,0 1.06473,-0.31641 1.09765,-0.70313 z m -4.08429,-16.39531 c -0.22424,-1.16617 -0.41624,-0.43281 -0.42664,1.62969 -0.0104,2.0625 0.17307,3.01664 0.40772,2.12031 0.23464,-0.89634 0.24316,-2.58384 0.0189,-3.75 z m 4.27115,-11.96406 c 0,-6.97839 -1.10017,-10.70903 -2.68944,-9.11977 -0.32945,0.32944 -0.29396,4.6674 0.0788,9.63991 0.83391,11.12285 2.6106,10.76886 2.6106,-0.52014 z m -4.31332,2.57812 c -0.26007,-0.64453 -0.47287,-0.11718 -0.47287,1.17188 0,1.28906 0.2128,1.81641 0.47287,1.17187 0.26007,-0.64453 0.26007,-1.69921 0,-2.34375 z m 3.33391,-16.875 c 0.22297,-0.64453 0.0907,-4.75781 -0.2939,-9.14062 -0.38462,-4.38281 -0.73285,-8.91797 -0.77385,-10.07813 -0.041,-1.16015 -0.42169,-2.10937 -0.84596,-2.10937 -0.69184,0 -0.82904,7.43976 -0.34149,18.51562 0.16708,3.79555 1.38826,5.31851 2.2552,2.8125 z m -89.333192,-1.40625 c -0.03624,-0.90234 -0.428465,-2.48437 -0.871608,-3.51562 -0.646334,-1.5041 -0.81875,-1.17956 -0.871608,1.64062 -0.03624,1.9336 0.355983,3.51563 0.871608,3.51563 0.515625,0 0.907849,-0.73828 0.871608,-1.64063 z M 143.4375,349.74283 c 0,-1.51644 -0.42188,-3.01791 -0.9375,-3.33658 -0.51563,-0.31867 -0.9375,0.25474 -0.9375,1.27425 0,1.0195 -0.25607,2.52097 -0.56905,3.33657 -0.37342,0.97312 -0.0511,1.48293 0.9375,1.48293 1.04222,0 1.50655,-0.84977 1.50655,-2.75717 z M 142.5,337.44467 c 0,-0.4852 -0.42188,-0.88217 -0.9375,-0.88217 -0.51563,0 -0.9375,0.65771 -0.9375,1.46158 0,0.80387 0.42187,1.20084 0.9375,0.88217 0.51562,-0.31867 0.9375,-0.97639 0.9375,-1.46158 z M 39.536023,310.8924 c -0.528782,-1.09238 -1.206266,-2.61896 -1.505523,-3.3924 -0.299255,-0.77344 -0.314688,0.45195 -0.03429,2.72308 0.598132,4.84473 1.64369,6.99148 2.152395,4.41932 0.191862,-0.97012 -0.0838,-2.65762 -0.61258,-3.75 z m 92.222547,-1.30297 c 3.63128,0.0245 7.42816,-0.40487 8.4375,-0.95405 1.00935,-0.54918 2.64061,-1.25277 3.62505,-1.56354 1.72129,-0.54338 1.76724,-1.49813 1.19954,-24.92212 -0.33115,-13.66298 -1.01374,-25.14825 -1.55469,-26.15903 -0.5304,-0.99106 -3.60144,-3.23571 -6.82454,-4.98812 -3.2231,-1.75242 -8.58762,-4.76232 -11.92115,-6.68868 -6.19004,-3.57706 -14.46125,-6.13497 -15.73203,-4.86521 -0.38885,0.38854 -0.83502,6.05044 -0.99148,12.582 -0.32527,13.5783 -0.48283,14.40566 -2.58944,13.59728 -1.35344,-0.51937 -1.49877,-2.2948 -1.20736,-14.74982 0.32544,-13.90971 0.29561,-14.16447 -1.6918,-14.44766 -2.01991,-0.28782 -2.02268,-0.25992 -1.77056,17.8125 0.32657,23.40826 3.37936,41.06952 7.09897,41.06952 1.33571,0 1.11734,3.49859 -0.25845,4.14063 -0.88106,0.41116 -0.82789,0.70031 0.21422,1.16515 0.76236,0.34006 3.50455,2.61882 6.09375,5.06392 4.51344,4.26222 8.33426,5.93534 10.33265,4.5246 0.51563,-0.364 3.90854,-0.64182 7.53982,-0.61737 z m 18.37431,-13.11845 c 0.10435,-4.24099 -0.0938,-7.9944 -0.44033,-8.34093 -0.34653,-0.34653 -0.63469,1.86605 -0.64037,4.91682 -0.006,3.05079 -0.27156,7.23438 -0.59084,9.29688 -0.41858,2.70383 -0.29286,3.48331 0.45063,2.79405 0.56715,-0.52578 1.11656,-4.42584 1.22091,-8.66682 z m 5.72118,5.56685 c 0.81835,-3.12939 -0.43989,-16.04572 -1.66189,-17.05989 -0.94541,-0.78462 -1.20341,1.03099 -1.26371,8.89308 -0.0594,7.7483 0.19961,9.87898 1.20104,9.87898 0.70225,0 1.4783,-0.77048 1.72456,-1.71217 z M 30.793379,290.05792 c 1.181442,-0.82751 3.221358,-1.7916 4.533145,-2.14243 2.939553,-0.78616 4.559873,-5.11787 5.84481,-15.62535 0.500833,-4.09551 1.401318,-10.37172 2.001079,-13.94713 1.005247,-5.99266 0.915925,-9.08883 -0.615878,-21.34824 l -0.551212,-4.41148 -6.579489,0.37894 c -3.61872,0.20841 -6.6792,0.50608 -6.801068,0.66148 -0.557223,0.71055 -4.270779,17.87738 -5.232557,24.18879 -0.589308,3.86719 -1.709249,8.71875 -2.488754,10.78125 -1.887202,4.99337 -2.608315,21.16335 -0.989623,22.19097 2.02887,1.28802 8.632851,0.84685 10.879547,-0.7268 z m 11.578696,-1.83358 c 0.475893,-4.07637 -0.469263,-4.93406 -1.922486,-1.74458 -1.441491,3.16372 -1.354995,5.08274 0.229093,5.08274 0.79619,0 1.455387,-1.29947 1.693393,-3.33816 z m 5.426069,-5.33372 C 47.80604,281.98828 47.390625,281.25 46.875,281.25 c -0.515625,0 -0.93104,1.37109 -0.923144,3.04687 0.01089,2.31209 0.233521,2.70775 0.923144,1.64063 0.499834,-0.77344 0.915248,-2.14453 0.923144,-3.04688 z m 43.608106,-3.16486 c 3.09375,-0.30507 5.978822,-0.8837 6.411281,-1.28587 0.43245,-0.40216 0.47821,-10.29039 0.101672,-21.97385 l -0.684609,-21.24264 -2.710453,-1.40163 c -5.232621,-2.70589 -0.435272,-4.06819 6.257109,-1.77681 1.03125,0.35308 0.082,-0.47869 -2.109375,-1.84839 -2.313619,-1.44607 -3.984375,-3.20516 -3.984375,-4.19502 0,-2.28422 -3.748248,-3.05275 -15.679875,-3.21497 -9.541333,-0.12972 -9.587889,-0.11938 -9.963829,2.21342 -0.64425,3.99773 -1.033065,15.7508 -1.054491,31.875 l -0.02056,15.46875 2.8125,3.53957 c 3.148427,3.96234 6.842475,5.48656 11.71875,4.83531 1.804687,-0.24102 5.8125,-0.68781 8.90625,-0.99287 z m 58.43226,-15.231 c -0.34664,-1.73883 -1.08493,-3.61618 -1.64063,-4.17188 -1.43496,-1.43496 -1.32731,8.7058 0.16149,15.21266 l 1.17188,5.12169 L 150,274.15674 c 0.25781,-3.57527 0.18514,-7.92316 -0.16149,-9.66198 z m -87.607697,13.82361 c 2.828036,-1.28854 3.114834,-4.03373 3.774572,-36.12994 0.388526,-18.90171 0.260444,-21.78917 -0.987768,-22.26815 -0.788799,-0.30269 -2.508284,0.29454 -3.821078,1.32719 -1.312795,1.03264 -2.93792,1.87753 -3.611391,1.87753 -1.839548,0 -1.971265,0.4759 -3.632645,13.125 -0.846552,6.44531 -2.363431,17.06159 -3.370844,23.59173 C 48.313317,274.54532 48.3149,275.1899 50.625,277.5 c 2.125886,2.12588 7.850229,2.52953 11.605813,0.81837 z M 47.783155,263.90625 c 0.610914,-4.125 1.478127,-10.24219 1.927141,-13.59375 0.449014,-3.35156 1.246582,-9.04687 1.772373,-12.65625 1.203712,-8.26307 1.202978,-8.19414 0.07983,-7.5 -0.515625,0.31868 -0.9375,1.84787 -0.9375,3.39821 0,1.55035 -0.443016,3.64659 -0.984482,4.65833 -0.541464,1.01173 -1.204544,4.25353 -1.47351,7.20399 -0.268966,2.95045 -1.091502,8.52853 -1.827857,12.39572 -1.461075,7.67326 -1.774601,18.70823 -0.439499,15.46875 0.425013,-1.03125 1.27259,-5.25 1.883503,-9.375 z m 92.317905,-15.90769 c -1.00089,-0.75703 -2.24169,-1.37643 -2.75731,-1.37643 -0.51563,0 -0.11858,0.6194 0.88231,1.37643 1.00089,0.75704 2.24168,1.37644 2.75731,1.37644 0.51562,0 0.11858,-0.6194 -0.88231,-1.37644 z m 17.74416,-9.88834 c 6.31647,-4.26292 8.3508,-11.05636 8.83886,-29.51647 0.21739,-8.22268 0.77275,-14.31054 1.33732,-14.65979 0.53104,-0.32852 1.32973,-4.54727 1.77489,-9.375 0.44514,-4.82774 1.03421,-9.36448 1.30904,-10.08166 0.7013,-1.83008 -0.42501,-4.93464 -1.54021,-4.24541 -0.50869,0.31439 -0.66201,1.76854 -0.34069,3.23146 0.32131,1.46292 0.0865,6.06338 -0.52172,10.22325 -0.83272,5.69504 -1.46147,7.5634 -2.54524,7.5634 -1.251,0 -1.3377,-1.25734 -0.6627,-9.60938 1.31112,-16.2229 0.33444,-25.45424 -3.44531,-32.56424 -0.95533,-1.79705 -1.73696,-3.74072 -1.73696,-4.31926 0,-0.57855 -3.74163,-3.45718 -8.31473,-6.39695 -4.57311,-2.93978 -9.5036,-6.58595 -10.95665,-8.10261 -1.45305,-1.51666 -2.87939,-2.75683 -3.16964,-2.75593 -0.29025,9e-4 -0.64792,4.11418 -0.79482,9.14063 -0.26564,9.08931 1.16207,20.4311 2.69082,21.37592 0.44043,0.2722 1.46155,-0.89319 2.26917,-2.58976 3.57813,-7.51659 6.37196,-11.0823 7.66791,-9.78637 0.57368,0.57369 -0.29876,2.70426 -4.85572,11.85795 -2.82063,5.66589 -3.19259,9.02237 -2.28561,20.625 0.42322,5.41406 0.77223,13.73491 0.7756,18.49077 0.004,4.75586 0.49454,9.55969 1.09153,10.67516 0.59698,1.11549 3.77256,4.81808 7.05681,8.22798 4.3511,4.51756 5.97702,6.89939 5.99211,8.77797 0.0253,3.1521 -2.09252,3.43393 -3.52257,0.46875 -0.91093,-1.8888 -1.02395,-1.70075 -1.08076,1.79832 -0.0784,4.82613 -0.81623,6.87355 -2.47717,6.87355 -0.9727,0 -1.24228,-1.63402 -1.13525,-6.88119 0.11695,-5.73435 -0.20446,-7.36544 -1.92852,-9.78665 -2.54104,-3.56857 -6.87746,-5.83216 -11.1728,-5.83216 -6.6421,0 -20.04542,-3.04646 -22.57931,-5.13209 -3.39222,-2.79211 -5.58307,-3.47164 -7.64135,-2.37008 -3.05266,1.63373 -7.436044,10.57163 -8.329181,16.98353 -0.45871,3.29306 -0.777113,5.98739 -0.70756,5.98739 0.666329,0 16.787651,5.64503 19.139451,6.70185 3.35934,1.50959 19.88389,6.52038 23.64324,7.16942 1.28906,0.22255 4.95932,0.46209 8.15613,0.53231 5.03059,0.11049 6.37583,-0.25261 10.0016,-2.69961 z M 47.746608,233.125 c 0.04281,-1.72558 -0.344699,-2.52143 -1.105983,-2.27145 -1.364441,0.44803 -2.06997,4.8477 -1.141161,7.11627 0.565698,1.38168 0.728041,1.34559 1.41027,-0.31357 0.42404,-1.03125 0.800633,-3.07031 0.836874,-4.53125 z m 3.607293,-13.33441 c 3.18566,-2.23132 2.563912,-3.39843 -1.432026,-2.68811 -4.031774,0.71669 -5.404689,1.67035 -4.50361,3.12834 0.898115,1.45318 3.508866,1.25955 5.935636,-0.44023 z m 44.434824,-4.2345 c 0.378272,-1.76679 1.550869,-4.88357 2.605772,-6.92619 2.564233,-4.96516 2.478403,-5.44832 -1.597622,-8.99302 -1.933594,-1.68154 -4.908723,-4.99452 -6.611397,-7.36216 -1.702675,-2.36765 -4.233925,-4.91202 -5.625,-5.65415 -2.896015,-1.54502 -13.430061,-1.48805 -19.404228,0.10493 -3.327652,0.8873 -3.521888,1.08591 -1.724611,1.76343 1.882896,0.7098 8.332731,0.6108 11.568361,-0.17755 3.062439,-0.74616 0.550621,3.4303 -6.172774,10.26361 -8.368791,8.50561 -11.411171,13.08681 -9.243394,13.91867 1.486566,0.57045 6.293878,-0.002 8.991463,-1.07089 0.990793,-0.39255 2.334469,0.21988 3.75,1.70921 1.460801,1.53696 3.631016,2.4983 6.424705,2.84594 9.915167,1.23383 12.707462,1.76255 13.558594,2.56733 1.521778,1.43888 2.759737,0.37557 3.480131,-2.98916 z M 50.193259,212.8125 c 1.741586,0 3.128985,-1.2686 5.812789,-5.31503 1.938861,-2.92326 4.685358,-6.47675 6.103327,-7.89663 3.24293,-3.24732 3.49431,-5.94235 0.46875,-5.02544 -5.051427,1.53084 -10.921566,4.45225 -11.387879,5.66745 -0.27852,0.7258 -1.310656,1.31965 -2.293635,1.31965 -2.042653,0 -2.97628,3.24801 -2.930603,10.19531 0.02237,3.40158 0.234426,3.9824 0.984085,2.69531 0.525567,-0.90234 1.984991,-1.64062 3.243166,-1.64062 z M 172.5,212.28842 c 0,-0.74301 -0.42188,-1.35092 -0.9375,-1.35092 -0.51563,0 -0.9375,0.86865 -0.9375,1.93033 0,1.06168 0.42187,1.6696 0.9375,1.35092 0.51562,-0.31868 0.9375,-1.18732 0.9375,-1.93033 z m -33.30438,-9.0853 c -0.87114,-2.58604 -0.85674,-6.33536 0.0468,-12.17993 0.48276,-3.12279 0.32863,-4.87766 -0.51799,-5.89777 -1.86527,-2.24751 -5.59941,-10.72925 -5.59941,-12.71851 0,-2.55146 1.76271,-2.19933 2.8125,0.56184 1.59675,4.19977 2.8125,2.56606 2.8125,-3.77942 0,-6.30141 -1.33751,-8.40575 -3.99631,-6.28747 -0.63797,0.50826 -3.20685,1.22057 -5.70863,1.58291 -4.06314,0.58846 -4.49627,0.87629 -4.0576,2.69638 0.27011,1.12068 1.10704,4.48731 1.85985,7.48139 0.89525,3.56059 1.10102,6.47942 0.59483,8.4375 -0.42566,1.64654 -1.15361,4.4802 -1.61767,6.29702 -1.02154,3.99937 -2.50516,6.95236 -5.52763,11.00216 -1.65557,2.2183 -1.94442,3.1612 -1.05424,3.44135 0.67438,0.21223 1.85896,0.59693 2.6324,0.85489 0.77344,0.25796 5.14686,0.50232 9.71872,0.54302 8.21921,0.0732 8.30449,0.0503 7.6019,-2.03536 z m -33.47105,-3.67769 c 0.84109,-0.84109 1.68507,-0.8328 3.59031,0.0352 3.334,1.51907 4.88616,0.0492 9.09476,-8.61217 5.14755,-10.59379 5.92225,-13.99472 4.14719,-18.20617 -1.87999,-4.46039 -2.68134,-11.30477 -1.4152,-12.08729 0.52975,-0.3274 3.12631,-1.07524 5.77015,-1.66188 l 4.80697,-1.06663 0.25578,-15.98038 c 0.2459,-15.36303 0.17202,-16.10467 -1.91234,-19.19766 -1.61829,-2.40138 -2.8438,-3.21729 -4.8324,-3.21729 -2.57105,0 -2.80483,0.41007 -6.68099,11.71875 -9.29867,27.12886 -9.13238,26.74864 -11.54994,26.40794 -1.35836,-0.19142 -3.15603,0.56355 -4.68029,1.96559 -5.308629,4.88299 -11.818178,9.1719 -15.373989,10.12938 -5.161986,1.38999 -8.390606,4.80495 -8.01844,8.48126 0.246213,2.43213 0.887203,3.09633 4.042609,4.18902 2.0625,0.71422 4.435547,1.30493 5.273438,1.31269 0.90967,0.008 1.732995,1.06191 2.043582,2.61484 0.496171,2.4809 11.65656,14.27432 13.50809,14.27432 0.45712,0 1.32594,-0.4948 1.93071,-1.09957 z M 99.375,192.10039 c 0,-6.82899 5.65058,-29.26231 7.02459,-27.88829 0.24062,0.24061 -0.56518,5.68429 -1.79066,12.09707 -1.22549,6.41277 -2.5017,13.24161 -2.83602,15.1752 -0.73352,4.24229 -2.39791,4.66987 -2.39791,0.61602 z m -59.859375,2.43086 c 0,-0.48984 -0.453516,-1.0418 -1.007813,-1.22656 C 37.953516,193.11992 37.5,193.67187 37.5,194.53125 c 0,0.85938 0.453516,1.41133 1.007812,1.22656 0.554297,-0.18476 1.007813,-0.73672 1.007813,-1.22656 z m 14.023869,-0.23438 c 2.725061,-1.26695 3.59573,-2.26008 3.822763,-4.36043 0.405165,-3.74828 3.846645,-6.0125 11.084603,-7.29276 3.346415,-0.59191 6.348388,-1.32343 6.671052,-1.62557 0.322663,-0.30215 0.869114,-2.7987 1.214335,-5.5479 0.567827,-4.52195 0.444851,-5.04635 -1.289787,-5.49997 -1.983973,-0.51882 -2.635625,-2.69961 -0.972354,-3.25402 1.209426,-0.40315 -1.028982,-8.4178 -2.351356,-8.41906 -0.980445,-9.4e-4 -1.163513,0.62102 -3.76648,12.79659 -2.242553,10.48971 -2.190851,10.35517 -3.483004,9.06302 -1.578388,-1.57839 -2.306634,-1.35793 -2.890573,0.87506 C 60.973467,183.34622 59.0625,182.56258 59.0625,180 c 0,-0.97039 -0.421875,-2.02507 -0.9375,-2.34375 -1.633222,-1.00939 -1.01943,-2.35901 1.510257,-3.32079 2.534859,-0.96375 2.663222,-2.28287 0.799118,-8.21207 -0.614373,-1.95416 -0.449927,-2.10052 1.741951,-1.55039 2.374034,0.59584 2.415304,0.52151 2.155846,-3.88295 -0.145488,-2.46973 -0.757869,-4.65487 -1.360847,-4.85586 -2.345163,-0.78172 -1.072967,-3.02169 1.716175,-3.02169 2.384299,0 2.8125,-0.36131 2.8125,-2.37317 0,-1.30525 -0.632813,-2.61601 -1.40625,-2.9128 -2.18475,-0.83837 -1.665016,-3.15153 0.708103,-3.15153 2.811557,0 5.188746,-6.39942 2.998539,-8.0721 -1.710987,-1.3067 -1.721788,-2.21965 -0.04192,-3.5433 2.084802,-1.64271 2.77339,-8.19618 1.094418,-10.41585 -1.364046,-1.80333 -1.419398,-1.80677 -1.448074,-0.0901 -0.0164,0.9817 -1.467726,4.3567 -3.225172,7.5 -1.757446,3.1433 -3.498216,7.33081 -3.868377,9.30556 -0.375984,2.00583 -1.344861,3.82841 -2.195269,4.12957 -1.634345,0.57879 -5.651649,4.91442 -5.707282,6.15953 -0.01854,0.41501 -1.792435,3.34439 -3.941983,6.50974 -2.435566,3.58653 -3.489055,5.89492 -2.795759,6.12601 0.61188,0.20396 1.632319,0.88412 2.267643,1.51147 0.635324,0.62734 1.893415,1.42019 2.795759,1.76187 3.789009,1.43476 0.52488,7.03001 -7.121975,12.20823 -2.301172,1.55828 -2.487405,2.18448 -2.487405,8.36368 0,9.84457 2.711283,12.04899 10.414494,8.46755 z m 29.247074,-29.39102 c 1.939451,-1.59867 5.049715,-5.28818 6.911698,-8.19893 1.861982,-2.91074 4.062018,-5.78701 4.888978,-6.39169 2.254415,-1.64847 0.843515,-2.34648 -5.824915,-2.88176 -4.640939,-0.37252 -6.946112,-0.08 -10.005859,1.27002 l -3.975672,1.75406 0.461506,6.09935 c 0.431025,5.69651 2.132285,11.2556 3.444575,11.2556 0.315378,0 2.160237,-1.30799 4.099689,-2.90665 z m 87.211582,-2.01523 C 169.18489,158.61817 168.75,158.48207 168.75,162.5 c 0,1.89062 0.41133,3.4375 0.91406,3.4375 0.52522,0 0.66734,-1.29614 0.33409,-3.04688 z m -77.387036,-1.17187 c 1.897024,-1.28906 3.902055,-2.34375 4.45562,-2.34375 0.553575,0 2.438325,-1.05638 4.188356,-2.3475 1.89762,-1.40003 3.86306,-2.1313 4.86964,-1.81183 0.92886,0.29481 1.68777,0.0708 1.68777,-0.49815 0,-0.5686 2.25383,-7.24157 5.00853,-14.8288 5.71452,-15.73947 6.63101,-18.95122 5.40786,-18.95122 -0.90598,0 -7.42391,11.21329 -14.81612,25.48931 -0.71785,1.38632 -3.607504,4.62477 -6.421467,7.19658 -2.813972,2.57181 -5.116303,5.11253 -5.116303,5.64604 0,0.53352 -0.9233,1.83021 -2.051776,2.88154 -2.815388,2.62294 -1.380892,2.40054 2.78789,-0.43222 z m -3.019125,-18.11534 c 2.159604,-0.1851 4.962274,-5.24053 4.379814,-7.90029 -0.449017,-2.05037 -2.792326,-2.0799 -7.937207,-0.10005 -4.591594,1.76696 -6.347096,3.56708 -6.347096,6.50842 0,2.11778 0.943668,2.25992 9.904489,1.49192 z m 10.039445,-1.80654 c 0.816496,-0.90234 2.329746,-3.61254 3.362766,-6.02265 1.48293,-3.45979 2.2545,-4.28365 3.66608,-3.91451 1.32383,0.34619 2.17704,-0.33606 3.2874,-2.62872 0.82476,-1.70293 1.34263,-3.25318 1.15081,-3.44499 -0.72042,-0.72042 -2.4963,1.04319 -3.37337,3.35009 -0.81823,2.15208 -1.02361,2.23502 -2.052,0.82861 -1.05063,-1.43682 -1.40045,-1.38628 -4.33858,0.62697 -2.929346,2.00721 -5.645527,7.57471 -5.695309,11.67396 -0.02072,1.70367 2.269819,1.43473 3.992203,-0.46875 z M 77.746608,136.64062 C 77.782849,135.73828 77.390625,135 76.875,135 c -0.515625,0 -0.907849,1.58203 -0.871608,3.51562 0.05286,2.82019 0.225274,3.14473 0.871608,1.64063 0.443143,-1.03125 0.835367,-2.61328 0.871608,-3.51563 z m 0.06589,-4.45312 c 0,-0.51563 -0.421875,-0.9375 -0.9375,-0.9375 -0.515625,0 -0.9375,0.42187 -0.9375,0.9375 0,0.51562 0.421875,0.9375 0.9375,0.9375 0.515625,0 0.9375,-0.42188 0.9375,-0.9375 z m 30,-8.97222 c 0,-0.25781 -0.84375,-0.0172 -1.875,0.53472 -1.03125,0.55191 -1.875,1.21441 -1.875,1.47222 0,0.25781 0.84375,0.0172 1.875,-0.53472 1.03125,-0.55191 1.875,-1.21441 1.875,-1.47222 z m -28.125,0.60276 c 0,-0.4782 -1.082344,-1.72082 -2.405208,-2.76139 -1.322865,-1.04056 -2.819257,-3.39149 -3.325316,-5.2243 -0.922958,-3.34267 -3.018587,-4.44062 -3.932075,-2.06012 -0.614764,1.60206 2.237959,6.04583 5.650034,8.80124 2.795364,2.25738 4.012565,2.63492 4.012565,1.24457 z m 39.375,-7.98146 c 0,-0.98951 -1.79917,-1.40523 -2.3343,-0.53937 -0.32387,0.52403 0.0688,0.95279 0.87272,0.95279 0.80387,0 1.46158,-0.18604 1.46158,-0.41342 z M 153.75,67.389343 c 0,-0.515625 -0.42188,-0.676767 -0.9375,-0.358093 -0.51563,0.318674 -0.9375,1.001282 -0.9375,1.516907 0,0.515625 0.42187,0.676767 0.9375,0.358093 0.51562,-0.318674 0.9375,-1.001282 0.9375,-1.516907 z m 6.5625,-7.444671 c 0,-0.485195 -0.42188,-0.882172 -0.9375,-0.882172 -0.51563,0 -0.9375,0.657711 -0.9375,1.461578 0,0.803868 0.42187,1.200846 0.9375,0.882172 0.51562,-0.318674 0.9375,-0.976384 0.9375,-1.461578 z m -59.39801,57.414038 c -0.43348,-2.22616 -0.53532,-4.30038 -0.22631,-4.60938 1.12145,-1.12146 1.61034,0.57871 1.31555,4.57497 l -0.30111,4.08195 -0.78813,-4.04754 z M 65.320148,102.21131 C 63.210644,99.704306 62.117094,96.200616 59.55779,83.748954 59.222064,82.115567 58.229572,79.951519 57.352251,78.939959 55.713938,77.05097 55.482858,71.982167 56.617017,62.8125 c 0.75313,-6.089038 3.521867,-15.9375 4.480574,-15.9375 1.573741,0 9.214909,-7.752441 9.214909,-9.349099 0,-0.885664 0.801691,-2.335819 1.781536,-3.222567 0.979845,-0.886747 1.995036,-2.428696 2.255981,-3.426551 0.398894,-1.525372 -0.02188,-1.814283 -2.64236,-1.814283 -4.725283,0 -6.082657,-0.841764 -6.082657,-3.772108 0,-1.784225 -0.820251,-3.231516 -2.542473,-4.486068 -2.219404,-1.616722 -2.379008,-2.049025 -1.25605,-3.402108 0.772977,-0.931379 1.881293,-1.292283 2.776849,-0.90423 1.708181,0.740172 11.822377,2.366512 14.601298,2.347855 1.02348,-0.0068 3.55473,-1.922074 5.625,-4.256007 C 92.101611,6.3917113 107.73813,-0.68838727 115.8765,0.53203729 118.86802,0.98064253 120,1.5828115 120,2.7255633 c 0,1.1799011 -1.47033,1.8746592 -5.85937,2.7686598 -3.22266,0.6564201 -7.18622,1.7702055 -8.80793,2.4750783 -1.62171,0.704873 -3.75042,1.0718937 -4.73048,0.8156015 -2.128926,-0.5567264 -10.861295,5.0720761 -14.524338,9.3622501 -2.089889,2.447689 -2.26827,3.03507 -1.053534,3.469127 0.804283,0.28739 2.413282,3.052112 3.575553,6.143825 1.8331,4.87616 1.941684,5.855886 0.819159,7.39103 -0.711733,0.973353 -1.29406,2.382983 -1.29406,3.132512 0,0.749528 -0.826844,2.250927 -1.837432,3.33644 -1.010587,1.085515 -4.596525,4.919545 -7.96875,8.520067 -3.372225,3.600521 -6.118152,6.975521 -6.102059,7.5 0.01609,0.524478 1.068618,2.641096 2.338947,4.703596 1.752557,2.845444 2.310846,5.055896 2.314491,9.163829 0.0044,4.918984 0.220361,5.495783 2.363101,6.310452 1.308391,0.497449 3.916966,0.574878 5.859375,0.17392 3.3103,-0.683323 3.526619,-0.950558 3.969827,-4.904203 0.539298,-4.810823 2.206693,-5.592344 2.630201,-1.232795 0.157549,1.621787 1.106768,3.691078 2.109377,4.598426 3.042131,2.753093 1.887703,9.63001 -1.962496,11.690576 -2.613885,1.398909 -3.498322,0.413727 -1.910743,-2.128391 0.903577,-1.446856 0.960301,-2.125434 0.198886,-2.379239 C 89.541851,83.441033 89.0625,82.7176 89.0625,82.028694 c 0,-0.979043 -0.716446,-1.054735 -3.280976,-0.346634 -2.643659,0.729949 -4.123657,0.533164 -7.619174,-1.01307 C 75.776342,79.613546 73.716927,78.75 73.585872,78.75 c -0.131055,0 -0.716314,1.898437 -1.300575,4.21875 -0.584261,2.320312 -1.478094,4.21875 -1.986295,4.21875 -1.252075,0 -1.171878,-7.44665 0.120111,-11.152853 0.869827,-2.495184 0.776251,-3.291131 -0.560588,-4.768321 -2.117863,-2.340212 -1.100925,-3.954653 1.797018,-2.852857 3.403886,1.294155 3.564558,0.103001 0.50686,-3.757657 -3.796089,-4.792953 -3.569666,-7.388134 1.116935,-12.801918 3.396347,-3.923334 3.670796,-4.552478 2.109375,-4.835517 -0.98723,-0.178955 -2.195744,-0.706299 -2.685588,-1.171875 -3.005377,-2.856484 -7.752427,1.520619 -11.192144,10.31992 -1.88088,4.811565 -2.200636,14.720539 -0.658754,20.414239 0.584512,2.158425 0.986779,4.2678 0.893925,4.6875 -0.09285,0.419699 0.08841,1.395901 0.402791,2.169339 0.314389,0.773437 0.697771,2.458663 0.851962,3.744947 0.179845,1.500306 1.288586,2.844628 3.092845,3.75 1.546875,0.776216 4.472384,2.989134 6.501132,4.91759 2.834824,2.694685 4.733601,3.644907 8.203125,4.105154 5.956835,0.790199 6.284759,3.169809 0.436819,3.169809 -2.956603,0 -5.205909,-0.75773 -8.181404,-2.7561 -2.257051,-1.515853 -4.262989,-2.596838 -4.457641,-2.402184 -0.194651,0.194653 0.277943,1.620496 1.05021,3.168544 2.354959,4.72062 -0.633603,5.46403 -4.325844,1.07605 z M 83.176219,40.82384 c 1.519026,-2.345466 1.982094,-4.224391 1.711489,-6.944476 C 84.345668,28.430856 79.6875,22.13369 79.6875,26.849438 c 0,0.845317 -1.292372,3.637312 -2.871938,6.204434 l -2.871938,4.667494 1.934438,2.059115 c 1.063941,1.132513 1.934438,2.559268 1.934438,3.170567 0,2.29917 3.360023,0.966611 5.363719,-2.127208 z M 78.28125,24.375 c 0.352481,-0.570326 -1.002752,-0.931878 -3.460297,-0.923144 -2.953673,0.0105 -3.661648,0.258673 -2.633453,0.923144 1.840191,1.189222 5.35877,1.189222 6.09375,0 z m 27.21107,63.788135 c -0.30571,-0.494651 -0.0248,-1.749747 0.62432,-2.789101 0.93126,-1.491186 0.93796,-2.131935 0.0318,-3.038135 -1.65163,-1.651612 -1.41591,-2.648399 0.62628,-2.648399 1.91224,0 2.9128,1.733127 2.9128,5.045425 0,3.179334 -2.88987,5.542249 -4.19518,3.43021 z M 115.1806,70.86615 c -1.36975,-3.006274 -4.58688,-4.30365 -10.67185,-4.30365 -6.594591,0 -8.178103,-1.983938 -7.326009,-9.178541 0.713915,-6.02796 2.099109,-6.272581 6.905939,-1.219564 3.55708,3.739271 8.19229,6.648105 10.59373,6.648105 1.89903,0 3.10335,1.817169 3.81118,5.750602 0.76041,4.225718 -1.66784,5.913745 -3.31299,2.303048 z M 80.859375,66.533286 C 77.786937,65.298317 78.025116,61.875 81.183476,61.875 c 2.957419,0 7.879024,2.761489 7.879024,4.420883 0,1.394124 -4.967681,1.537892 -8.203125,0.237403 z M 120,51.560075 c -4.93555,-5.465293 -8.72485,-7.012241 -15.1039,-6.166031 -2.83412,0.37596 -4.5836,0.250475 -4.5836,-0.328769 0,-3.180464 11.78178,-3.97571 16.47758,-1.112205 5.35786,3.267233 11.04046,9.145822 10.41542,10.774654 -0.97072,2.529645 -2.77788,1.735186 -7.2055,-3.167649 z M 106.875,28.694052 c 0,-1.43345 1.96996,-2.444052 4.76418,-2.444052 2.50242,0 2.25919,2.470307 -0.31105,3.159107 -3.29735,0.883655 -4.45313,0.698066 -4.45313,-0.715055 z m -9.597356,-3.534649 c -0.42465,-3.970798 0.456403,-6.487861 1.800478,-5.143778 1.044838,1.044831 0.79035,7.053404 -0.346903,8.190653 -0.733369,0.733371 -1.140582,-0.120201 -1.453575,-3.046875 z"
     id="path3386"
     inkscape:connector-curvature="0" />
</svg>
